<svg id="Grupo_37" data-name="Grupo 37" xmlns="http://www.w3.org/2000/svg" width="17" height="15" viewBox="0 0 17 15">
  <path id="Caminho_270" data-name="Caminho 270" d="M17.515,7.919l-6.757,4.8L4,7.919v9.6H17.515Zm0-1.919H4l6.757,4.788Z" transform="translate(-2.257 -4.257)" fill="#868e96" opacity="0.3"/>
  <path id="Caminho_271" data-name="Caminho 271" d="M3.7,19H17.3A1.8,1.8,0,0,0,19,17.125V5.875A1.8,1.8,0,0,0,17.3,4H3.7A1.8,1.8,0,0,0,2,5.875v11.25A1.8,1.8,0,0,0,3.7,19ZM17.3,5.875l-6.8,4.678L3.7,5.875ZM3.7,7.75l6.8,4.688L17.3,7.75v9.375H3.7Z" transform="translate(-2 -4)" fill="#868e96"/>
</svg>
