<svg id="Grupo_36" data-name="Grupo 36" xmlns="http://www.w3.org/2000/svg" width="14" height="18" viewBox="0 0 14 18">
  <path id="Caminho_267" data-name="Caminho 267" d="M6,18.713H16.515V10H6Zm5.257-6.1A1.743,1.743,0,1,1,9.5,14.356,1.753,1.753,0,0,1,11.257,12.614Z" transform="translate(-4.257 -2.455)" fill="#868e96" opacity="0.3"/>
  <path id="Caminho_268" data-name="Caminho 268" d="M16.25,7h-.875V5.286a4.376,4.376,0,0,0-8.75,0V7H5.75A1.738,1.738,0,0,0,4,8.714v8.571A1.738,1.738,0,0,0,5.75,19h10.5A1.738,1.738,0,0,0,18,17.286V8.714A1.738,1.738,0,0,0,16.25,7ZM8.375,5.286a2.626,2.626,0,0,1,5.25,0V7H8.375Zm7.875,12H5.75V8.714h10.5ZM11,14.714A1.715,1.715,0,1,0,9.25,13,1.738,1.738,0,0,0,11,14.714Z" transform="translate(-4 -1)" fill="#868e96"/>
</svg>
